<?xml version="1.0" encoding="utf-8"?>
<!-- Generator: Adobe Illustrator 16.0.0, SVG Export Plug-In . SVG Version: 6.00 Build 0)  -->
<!DOCTYPE svg PUBLIC "-//W3C//DTD SVG 1.1//EN" "http://www.w3.org/Graphics/SVG/1.1/DTD/svg11.dtd">
<svg version="1.1" id="Layer_1" xmlns="http://www.w3.org/2000/svg" xmlns:xlink="http://www.w3.org/1999/xlink" x="0px" y="0px"
	 width="60px" height="60px" viewBox="450.5 450.5 60 60" enable-background="new 450.5 450.5 60 60" xml:space="preserve">
<path d="M450.5,450.5h14.483v14.483H450.5V450.5z M467.052,450.5h2.069v2.069h2.069v4.138h-2.069v-2.069h-2.069V450.5z
	 M471.189,450.5h2.069v2.069h-2.069V450.5z M477.396,450.5h6.207v2.069h-4.138v2.069h-4.138v4.138h2.069v2.069h2.069v2.069h-2.069
	v4.138h-2.069v-4.138h-2.069v-2.069h-4.138v-2.069h4.138v-6.207h4.138V450.5z M485.673,450.5h8.275v2.069h-4.138v2.069h-2.069
	v-2.069h-2.068V450.5z M496.018,450.5H510.5v14.483h-14.482V450.5z M452.569,452.569v10.345h10.345v-10.345H452.569z
	 M483.604,452.569h2.069v4.138h-2.069V452.569z M498.086,452.569v10.345h10.345v-10.345H498.086z M454.638,454.638h6.207v6.207
	h-6.207V454.638z M489.811,454.638h2.068v8.276h-2.068V454.638z M500.155,454.638h6.207v6.207h-6.207V454.638z M467.052,456.707
	h2.069v2.069h-2.069V456.707z M479.465,456.707h4.138v2.069h-2.069v2.069h-2.069V456.707z M485.673,456.707h2.068v2.069h-2.068
	V456.707z M483.604,458.776h2.069v6.207h2.068v4.138h2.069v-2.069h2.068v2.069h4.139v-2.069h2.068v2.069h4.139v2.069h-4.139v2.069
	h2.069v4.138h-2.069v-2.069h-2.068v-4.138h-6.207v2.069h-2.069v-2.069h-2.068v-4.138h-2.069v4.138h-4.138v2.069h-2.069v4.138h-2.069
	v-2.069h-6.207v2.069h4.138v2.069h-6.207v6.208h-4.138v2.068h-4.138v-2.068h-2.069v-2.069h4.138v-2.069h2.069v2.069h2.069v-2.069
	h-2.069v-2.069h2.069v-2.069h2.069v-4.138h-4.138v-2.069h4.138v-2.069h2.069v4.138h4.138v-4.138h2.069v2.069h2.069v-4.138h2.069
	v2.069h2.069v-4.138h2.069v-2.069h-2.069v-2.069h2.069V458.776z M467.052,462.914h2.069v4.138h-2.069V462.914z M471.189,462.914
	h2.069v2.069h-2.069V462.914z M479.465,462.914h2.069v2.069h-2.069V462.914z M487.741,462.914h2.069v2.069h-2.069V462.914z
	 M491.879,462.914h2.069v2.069h-2.069V462.914z M450.5,467.052h2.069v2.069H450.5V467.052z M454.638,467.052h4.138v2.069h-4.138
	V467.052z M460.845,467.052h6.207v2.069h-4.138v2.069h-2.069V467.052z M469.121,467.052h4.138v2.069h-4.138V467.052z
	 M502.225,467.052h2.068v2.069h-2.068V467.052z M506.362,467.052h4.138v4.138h-2.069v-2.069h-2.068V467.052z M450.5,471.189h6.207
	v2.069h-4.138v2.069H450.5V471.189z M483.604,471.189h2.069v4.138h-2.069V471.189z M504.293,471.189h4.138v2.069h-4.138V471.189z
	 M458.776,473.259h2.069v6.207h-2.069v-2.069h-2.069v-2.069h2.069V473.259z M489.811,473.259h4.138v2.069h-2.069v4.138h2.069v2.069
	h-8.275v2.069h-2.069v-2.069h-2.069v-2.069h2.069v-2.069h2.069v-2.069h2.068v4.138h2.069V473.259z M508.431,473.259h2.069v2.069
	h-2.069V473.259z M462.914,475.328h2.069v2.069h-2.069V475.328z M479.465,475.328h4.138v2.069h-2.069v2.069h-2.069V475.328z
	 M502.225,475.328h4.138v2.069h4.138v4.138h-2.069v6.207h-2.068v6.207h4.138v2.069h-2.069v2.068h-2.068v-2.068h-2.069v4.138h-2.068
	v2.069h2.068v2.068h-4.138v2.069h-2.069v-4.138h-2.068v2.068h-2.069v-2.068h-2.069v-4.139h-4.138v-2.068h4.138v-4.139h4.139v-4.138
	h2.068v-6.207h-2.068v-4.138h2.068v2.069h2.069v2.069h2.069v2.069h2.068v2.069h2.069v-4.139h-2.069v-4.138h-2.068V475.328z
	 M452.569,477.396h2.069v2.069h-2.069V477.396z M475.328,479.465h4.138v2.069h-4.138V479.465z M450.5,481.534h6.207v2.069h-4.138
	v2.069H450.5V481.534z M471.189,481.534h2.069v8.276h-2.069v-4.138h-2.069v-2.069h2.069V481.534z M479.465,481.534h2.069v2.069
	h2.069v2.069h-2.069v2.068h2.069v-2.068h4.138v4.138h4.138v2.068h-2.068v2.069h-14.483v6.207h2.069v2.069h2.069v4.138h2.069v4.138
	h-4.138v-4.138h-2.069v2.068h-2.069v2.069h-2.069v-2.069h-2.069v-2.068h-2.069v-4.138h2.069v2.068h2.069v2.069h2.069v-2.069h2.069
	v-2.068h-6.207v-2.069h-2.069v-6.207h-4.138v-2.069h4.138v-2.068h-4.138v-2.069h6.207v2.069h2.069v4.138h-2.069v2.069h4.138v-4.139
	h2.069v-6.206h2.069v2.068h2.069V481.534z M487.741,483.604h2.069v2.069h-2.069V483.604z M491.879,483.604h4.139v2.069h-2.069v2.068
	h-2.069V483.604z M500.155,485.673v2.068h2.069v4.138h2.068v-4.138h-2.068v-2.068H500.155z M450.5,487.741h2.069v2.069H450.5
	V487.741z M454.638,489.811h2.069v2.068h4.138v2.069h-8.276v-2.069h2.069V489.811z M493.948,493.948v6.207h6.207v-6.207H493.948z
	 M450.5,496.018h14.483V510.5H450.5V496.018z M479.465,496.018h2.069v2.068h2.069v2.069h-6.207v-2.069h2.069V496.018z
	 M496.018,496.018h2.068v2.068h-2.068V496.018z M452.569,498.086v10.345h10.345v-10.345H452.569z M471.189,498.086v2.069h2.069
	v-2.069H471.189z M508.431,498.086h2.069v2.069h-2.069V498.086z M454.638,500.155h6.207v6.207h-6.207V500.155z M485.673,500.155
	h4.138v2.069h-4.138V500.155z M504.293,500.155h4.138v2.069h-4.138V500.155z M481.534,502.225h4.139v2.068h4.138v6.207h-2.069
	v-4.138h-2.068v4.138h-2.069v-6.207h-2.069V502.225z M508.431,502.225h2.069v4.138h-2.069V502.225z M491.879,504.293h2.069v2.069
	h4.138v2.068h-4.138v2.069h-2.069V504.293z M504.293,504.293h2.069v2.069h-2.069V504.293z M500.155,506.362h4.138v2.068h-4.138
	V506.362z M506.362,506.362h2.068v4.138h-2.068V506.362z M467.052,508.431h2.069v2.069h-2.069V508.431z"/>
</svg>
